<svg xmlns="http://www.w3.org/2000/svg" xmlns:xlink="http://www.w3.org/1999/xlink" width="1349.727" height="150.075" viewBox="0 0 1349.727 150.075"><defs><clipPath id="a"><path d="M0,0H150V150H0Z" transform="translate(5733 4938)" fill="#fff" stroke="#707070" stroke-width="1"/></clipPath><clipPath id="b"><path d="M0,0H150V150H0Z" transform="translate(6133 4938)" stroke="#707070" stroke-width="1"/></clipPath><clipPath id="c"><path d="M0,0H150V150H0Z" transform="translate(5933 4938)" stroke="#707070" stroke-width="1"/></clipPath><clipPath id="d"><path d="M0,0H150V150H0Z" transform="translate(6333 4938)" stroke="#707070" stroke-width="1"/></clipPath><clipPath id="e"><rect width="149.925" height="149.925" fill="#fff" stroke="#707070" stroke-width="1"/></clipPath><clipPath id="f"><rect width="150" height="150" stroke="#707070" stroke-width="1"/></clipPath><clipPath id="g"><rect width="149.622" height="149.622" stroke="#707070" stroke-width="1"/></clipPath></defs><g transform="translate(-5733 -4937.925)"><g clip-path="url(#a)"><g transform="translate(5784.434 4995.255)"><g transform="translate(5 5.012)"><path d="M-56.434,28.648h6.4V13.83h.092l11.482,14.818h8.37L-43.764,11.77-30.636-3.278H-38.5L-50.031,10.444V-3.278h-6.4V28.648"/><path d="M-10.978-3.308a9.834,9.834,0,0,1,9.831,9.85c0,4.521-3.5,8.13-7.653,9.285L1.876,28.619h-8.37L-18.065,13.8V28.619h-6.406V-3.308Zm-7.1,15.371.013-10.341h5.2A5.141,5.141,0,0,1-7.728,6.894,5.169,5.169,0,0,1-12.9,12.063h-5.182" fill-rule="evenodd"/><path d="M54.2,1.762a5.247,5.247,0,0,1,5.244,5.261,5.043,5.043,0,0,1-5.225,5.04H49.059l0-10.341Zm1.875-5.07a9.849,9.849,0,0,1-.017,19.7H49.082l-.026,12.229H42.65V-3.308h13.43" fill-rule="evenodd"/><path d="M26.673,17.988a6.394,6.394,0,0,1-12.788,0v-21.3H7.492v20.4c0,8.554,4.754,12.074,12.785,12.074s12.785-3.52,12.785-12.074v-20.4H26.67l0,21.3" fill-rule="evenodd"/><path d="M91.336-2.683a21.794,21.794,0,0,0-7.271-1.073c-5.619,0-11.143,2.6-11.143,9.729,0,10.548,13.976,8.038,13.976,14.111,0,2.879-3.244,4.113-5.665,4.113A24.557,24.557,0,0,1,72.8,22.486v5.251a25.6,25.6,0,0,0,8.8,1.484c6.439,0,11.966-2.649,11.966-9.64,0-10.686-13.979-8.357-13.979-13.884,0-3.471,2.833-4.428,5.027-4.428a17.7,17.7,0,0,1,6.722,1.425V-2.683" fill-rule="evenodd"/></g></g></g><g clip-path="url(#b)"><g transform="translate(6077.238 5037.118)"><path d="M194.9-24.852h5.467l1.3-6.292H196.2l1.444-6.964h-8.017L185.46-17.96a11.95,11.95,0,0,0-.309,2.87,4.166,4.166,0,0,0,1.113,2.658,5.5,5.5,0,0,0,2.068,1.506,7.205,7.205,0,0,0,2.619.407h6.235l1.254-6.035h-3.194a2.684,2.684,0,0,1-1.671-.4c-.1-.089-.268-.233-.153-.77l1.478-7.132Z"/><path d="M61.485-38.282,60.1-31.612h8.681l1.38-6.67h-8.68Z"/><path d="M87.9-20.417l5.354,9.73H103.26l-6.185-10.88a18.4,18.4,0,0,0,2.83-1.989,10.8,10.8,0,0,0,2.985-5.183,7.756,7.756,0,0,0-1.429-6.752c-1.666-2.057-4.874-2.791-7.107-2.791H73.913l-1.38,6.67h9.841l7.312-.018a5.3,5.3,0,0,1,3.09.714,1.226,1.226,0,0,1,.463,1.438,2.891,2.891,0,0,1-1.763,1.88,6.693,6.693,0,0,1-3.073.736H80.416l.631-2.712H72.1L68.105-10.687h8.929l2.013-9.73H87.9Z"/><path d="M59.75-29.573,55.762-10.687h8.731l3.939-18.887H59.75Z"/><path d="M119.729-21.331a7.1,7.1,0,0,1-2.047,3.909,5.518,5.518,0,0,1-3.9,1.329A3.575,3.575,0,0,1,110.8-17.3a3.854,3.854,0,0,1-.53-3.36,5.227,5.227,0,0,1,2-3.178A5.835,5.835,0,0,1,116-25.107a3.961,3.961,0,0,1,3.141,1.093,2.89,2.89,0,0,1,.59,2.683m6.825-7.355c-2.087-1.8-5.133-2.716-9.06-2.716a18.614,18.614,0,0,0-9.443,2.429,11.254,11.254,0,0,0-5.858,7.6c-.815,3.93.064,6.944,2.607,8.963,2.063,1.628,5.13,2.457,9.116,2.457a17.819,17.819,0,0,0,9.4-2.372,11.049,11.049,0,0,0,5.326-7.417l.225-1.06c.685-3.314-.093-5.965-2.311-7.884"/><path d="M176.028-21.331a6.987,6.987,0,0,1-2.044,3.909,5.522,5.522,0,0,1-3.9,1.329,3.582,3.582,0,0,1-2.992-1.207,3.859,3.859,0,0,1-.529-3.36,5.219,5.219,0,0,1,2-3.178,5.837,5.837,0,0,1,3.732-1.269,3.964,3.964,0,0,1,3.143,1.1,2.883,2.883,0,0,1,.587,2.68m6.283-7.355c-2.085-1.8-5.134-2.716-9.061-2.716a18.622,18.622,0,0,0-9.444,2.429,11.252,11.252,0,0,0-5.856,7.6c-.815,3.93.064,6.944,2.605,8.963,2.064,1.628,5.131,2.457,9.117,2.457a17.809,17.809,0,0,0,9.4-2.372,11.061,11.061,0,0,0,5.329-7.417l.219-1.061c.687-3.312-.089-5.964-2.307-7.883"/><path d="M147.952-21.331a7.037,7.037,0,0,1-2.045,3.909,5.505,5.505,0,0,1-3.892,1.329,3.571,3.571,0,0,1-2.992-1.207c-.15-.18-.162-.454-.154-1.091a19.364,19.364,0,0,1,.9-4.3,2.442,2.442,0,0,1,.728-1.142,5.819,5.819,0,0,1,3.725-1.269,3.978,3.978,0,0,1,3.149,1.093,2.893,2.893,0,0,1,.585,2.683m6.267-7.369c-2.158-1.79-5.2-2.7-9.043-2.7a20.936,20.936,0,0,0-4.341.476l1.739-7.351h-8.513L130.9-24.09a45.578,45.578,0,0,0-.978,6.5,6.711,6.711,0,0,0,2.56,5.185c2.062,1.628,5.13,2.457,9.116,2.457a17.8,17.8,0,0,0,9.394-2.372,11.04,11.04,0,0,0,5.328-7.417l0,.037c.057-.245,1.409-6.081-2.1-8.994"/><path d="M202.876-36h.689a.541.541,0,0,0,.4-.135.457.457,0,0,0,.131-.331.365.365,0,0,0-.139-.311.576.576,0,0,0-.352-.1h-.732V-36Zm1.686,1.465h-.435l-.512-1.146h-.738v1.146h-.4V-37.2h1.128a.912.912,0,0,1,.683.233.728.728,0,0,1,.228.518.759.759,0,0,1-.123.4.669.669,0,0,1-.384.277l.55,1.233Zm.88-1.338a1.894,1.894,0,0,0-.576-1.39,1.893,1.893,0,0,0-1.388-.576,1.893,1.893,0,0,0-1.388.579,1.888,1.888,0,0,0-.578,1.387,1.892,1.892,0,0,0,.575,1.388,1.894,1.894,0,0,0,1.391.578,1.892,1.892,0,0,0,1.387-.579,1.891,1.891,0,0,0,.578-1.387m.32,0a2.2,2.2,0,0,1-.672,1.613,2.2,2.2,0,0,1-1.613.672,2.2,2.2,0,0,1-1.615-.672,2.2,2.2,0,0,1-.672-1.613,2.2,2.2,0,0,1,.672-1.612,2.2,2.2,0,0,1,1.615-.673,2.2,2.2,0,0,1,1.613.673,2.2,2.2,0,0,1,.672,1.612"/></g></g><g clip-path="url(#c)"><g transform="translate(5933 4998.271)"><path d="M141.15,17.948c0,2.854-1.779,4.261-3.6,4.261-1.779,0-3.558-1.406-3.558-4.261,0-2.77,1.737-4.3,3.558-4.3C139.413,13.647,141.15,15.178,141.15,17.948Zm8.85-.082c0-5.294-4.343-11.456-12.408-11.456-8.187,0-12.448,6.328-12.448,11.5,0,5.252,4.3,11.54,12.408,11.54S150,23.2,150,17.866" fill-rule="evenodd"/><path d="M124.368,14.968l0-7a13.162,13.162,0,0,0-6.41-1.562c-8.189,0-12.448,6.326-12.448,11.5,0,5.252,4.3,11.538,12.408,11.538a13.069,13.069,0,0,0,6.45-1.6v-7a18.5,18.5,0,0,1-4.986,1.254c-3.361,0-5.02-2.1-5.02-4.237,0-2.1,1.655-4.191,5.016-4.191a17.757,17.757,0,0,1,4.994,1.29"/><path d="M6.168,26.724l.314.212A14.728,14.728,0,0,0,24.507,3.72L5.615,13.756v4.958L24.194,8.864A11.141,11.141,0,0,1,9.9,24.771L6.168,26.724"/><path d="M19.523,4.679A11.14,11.14,0,0,0,5.248,20.584l-.01.012L23.95,10.669l-.008,4.958L4.934,25.732A14.728,14.728,0,0,1,22.952,2.516l.316.214L19.523,4.679"/><path d="M38.368,27.493c1.162.623,3.608,1.949,8.792,1.949,10.16,0,10.989-7.133,10.989-8.541,0-4.521-3.9-6.761-6.014-7.963-2.612-1.492-4.271-2.406-4.271-3.816,0-.787.705-1.823,2.364-1.823,2.488,0,5.142,2.2,6.676,3.648V3.275A12.731,12.731,0,0,0,48.362,0c-5.723,0-9.869,3.441-9.869,8.916,0,1.2,0,4.561,4.645,7.34,3.69,2.2,4.892,2.9,4.892,4.1,0,.581-.455,1.785-3.027,1.785a11.852,11.852,0,0,1-6.634-2.364v7.712"/><path d="M93.765,12.305c1.546,0,2.991,1.272,2.991,3.576H90.813C90.813,13.577,92.253,12.305,93.765,12.305Zm10.659,7.227c.5-7.694-5.092-13.017-10.871-13.017a11.075,11.075,0,0,0-11.4,11.26c0,6.53,5,11.668,12.538,11.668a20.485,20.485,0,0,0,9.523-1.849L104.264,22a19.352,19.352,0,0,1-7.949,1.919c-3.379,0-5.663-2.125-5.5-4.387h13.611"/><path d="M72.686,21.412a3.038,3.038,0,0,1-3.163,3.183,2.19,2.19,0,0,1-2.362-1.887c0-1.374.875-1.807,2.552-2.2a12.6,12.6,0,0,0,2.973-.983Zm9.363,1.555c-1.09-.154-1.5-.609-1.468-3.021l0-5c0-6.522-5.9-8.535-10.016-8.535-2.023,0-7.49.517-9.473,4A6.955,6.955,0,0,0,60,14.056h7a3.136,3.136,0,0,1,2.945-2.274,3.1,3.1,0,0,1,2.682,1.591,1.062,1.062,0,0,1,.146.539c0,1.364-.9,1.633-1.981,1.841-4.05.785-11.691.537-11.691,7.322,0,4.135,3.267,6.37,7.279,6.37,2.566,0,4.828-.457,6.512-2.442l.184.238c.747.707,2.053,1.789,6.172,1.789h2.8l0-6.063"/></g></g><g clip-path="url(#d)"><g transform="translate(6333 4980.11)"><path d="M32.916,65.779A32.89,32.89,0,1,0,0,32.9,32.9,32.9,0,0,0,32.916,65.779"/><path d="M31.591,18.46V47.319h9.175V44.724h-6.53V18.46Z" fill="#fff"/><path d="M22.4,26.334a3.946,3.946,0,1,0-3.942-3.942A3.945,3.945,0,0,0,22.4,26.334" fill="#fff"/><path d="M34.235,5.369c-.344-.017-1-.038-1.311-.038A27.546,27.546,0,1,0,60.469,32.883V31.658H40.792v2.536H57.845c0,.055,0,.324-.012.394A24.97,24.97,0,0,1,15.261,50.533,24.962,24.962,0,0,1,32.924,7.916c.288,0,.988,0,1.311.017Z" fill="#fff"/><path d="M90.586,11.073H80.695V53.891h30.379V45.556H90.586V11.073Zm42.247,26.5h8.056v7.487a22.8,22.8,0,0,1-7.138,1.129c-8.9,0-11.868-4.521-11.868-13.7,0-8.757,2.824-13.921,11.726-13.921,4.947,0,7.773,1.555,10.1,4.523l6.15-5.654c-3.745-5.365-10.318-6.99-16.462-6.99-13.851,0-21.126,7.559-21.126,21.97,0,14.342,6.57,22.113,21.057,22.113,6.64,0,13.141-1.695,16.672-4.167V29.588H132.833Z"/></g></g><g transform="translate(6533 4938)" clip-path="url(#e)"><g transform="translate(0 50.073)"><g transform="translate(0 0)"><path d="M149.832,11.853c2.042,11.7-29.821,27.032-71.176,34.234S2.132,49.635.093,37.924,29.926,10.9,71.275,3.7,147.8.146,149.832,11.853Z" transform="translate(0 0)"/><g transform="translate(21.122 16.566)"><path d="M100.233,27.431l-.211-12.169h3.836V30.6H98.343l-3.83-12.588h-.084L94.642,30.6H90.828V15.262h5.758l3.564,12.169Z" transform="translate(-10.442 -14.772)" fill="#fff"/><path d="M37.49,16.7,35.367,30.763H31.181l2.873-15.5h6.9l2.863,15.5H39.641L37.577,16.7Z" transform="translate(-17.456 -14.772)" fill="#fff"/><path d="M53.912,27.112l1.915-11.85h6.322l.335,15.5H58.61l-.1-13.936h-.081L55.836,30.763H51.9L49.31,16.827h-.084l-.1,13.936H45.247l.344-15.5h6.325l1.912,11.85Z" transform="translate(-15.802 -14.772)" fill="#fff"/><path d="M26.1,26.442a2.034,2.034,0,0,1,.034,1.15,1.345,1.345,0,0,1-1.509,1.041,1.387,1.387,0,0,1-1.562-1.407v-1.5H18.9l0,1.2c0,3.455,2.721,4.5,5.637,4.5,2.8,0,5.113-.958,5.479-3.542A7.732,7.732,0,0,0,30,25.335c-.654-3.245-6.539-4.215-6.976-6.027a2.037,2.037,0,0,1-.015-.818,1.279,1.279,0,0,1,1.416-1.038,1.324,1.324,0,0,1,1.441,1.407v.958H29.73V18.728c0-3.378-3.031-3.9-5.225-3.9-2.758,0-5.011.911-5.423,3.434a5.438,5.438,0,0,0,.034,2.095C19.8,23.516,25.3,24.433,26.1,26.442Z" transform="translate(-18.9 -14.824)" fill="#fff"/><path d="M71.192,26.4a2.008,2.008,0,0,1,.034,1.134,1.328,1.328,0,0,1-1.5,1.032,1.375,1.375,0,0,1-1.543-1.388l0-1.487H64.068l-.006,1.184c0,3.421,2.7,4.453,5.581,4.453,2.774,0,5.061-.945,5.423-3.5a7.411,7.411,0,0,0-.012-2.519c-.651-3.214-6.474-4.174-6.907-5.972a1.96,1.96,0,0,1-.015-.8,1.263,1.263,0,0,1,1.4-1.029,1.3,1.3,0,0,1,1.422,1.388v.948h3.836V18.763c0-3.341-3.006-3.864-5.181-3.864-2.727,0-4.961.9-5.364,3.406a5.315,5.315,0,0,0,.037,2.07C64.951,23.507,70.4,24.418,71.192,26.4Z" transform="translate(-13.589 -14.815)" fill="#fff"/><path d="M82.664,28.445a1.393,1.393,0,0,0,1.484-1.125,3.245,3.245,0,0,0,.037-.592V15.256h3.92V26.375c.009.285-.019.871-.034,1.016-.276,2.894-2.563,3.833-5.411,3.833s-5.141-.939-5.414-3.833c-.012-.146-.04-.734-.034-1.016V15.256H81.13V26.725a3.524,3.524,0,0,0,.037.592A1.413,1.413,0,0,0,82.664,28.445Z" transform="translate(-12.043 -14.773)" fill="#fff"/><path d="M111.6,28.325A1.454,1.454,0,0,0,113.19,27.2a3.629,3.629,0,0,0,.034-.589v-2.25h-1.59V22.1h5.5v4.162c0,.291-.009.505-.056,1.023-.257,2.82-2.705,3.827-5.451,3.827s-5.194-1.007-5.457-3.827c-.043-.518-.05-.731-.056-1.023l0-6.526c0-.276.034-.762.065-1.023.344-2.9,2.693-3.83,5.445-3.83s5.157.927,5.442,3.83a9.156,9.156,0,0,1,.034,1.023v.518h-3.908v-.868a3.873,3.873,0,0,0-.05-.589,1.407,1.407,0,0,0-1.546-1.131,1.427,1.427,0,0,0-1.543,1.131,3.567,3.567,0,0,0-.065.731v7.09a3.3,3.3,0,0,0,.04.589A1.432,1.432,0,0,0,111.6,28.325Z" transform="translate(-8.645 -14.817)" fill="#fff"/></g></g></g></g><g transform="translate(6733 4937.925)" clip-path="url(#f)"><g transform="translate(0 63.067)"><path d="M138.869,7.18v4.467a17.8,17.8,0,0,0-6.178-1.315,4.949,4.949,0,0,0-2.558.58,1.675,1.675,0,0,0-.966,1.421c0,.745.722,1.408,2.176,2l4.2,2.044c3.4,1.619,5.08,3.768,5.08,6.468a6.309,6.309,0,0,1-2.7,5.361,11.767,11.767,0,0,1-7.2,2,33.408,33.408,0,0,1-3.732-.185,28.818,28.818,0,0,1-3.782-.712V24.637a22.208,22.208,0,0,0,7.049,1.315c2.525,0,3.782-.732,3.782-2.209,0-.735-.514-1.329-1.559-1.794l-4.665-1.988a9.6,9.6,0,0,1-3.838-2.839,6.422,6.422,0,0,1-1.243-3.9,5.926,5.926,0,0,1,2.591-5,11.509,11.509,0,0,1,6.9-1.886,25.645,25.645,0,0,1,3.188.234c1.2.162,2.347.359,3.455.6Z" transform="translate(9.377 -6.343)" fill-rule="evenodd"/><path d="M20.7,7.18v4.467a17.788,17.788,0,0,0-6.175-1.315,4.941,4.941,0,0,0-2.558.58,1.675,1.675,0,0,0-.966,1.421c0,.745.732,1.408,2.186,2l4.2,2.044c3.383,1.619,5.071,3.768,5.071,6.468a6.333,6.333,0,0,1-2.687,5.361,11.805,11.805,0,0,1-7.21,2,33.471,33.471,0,0,1-3.735-.185,29.079,29.079,0,0,1-3.778-.712V24.637A22.3,22.3,0,0,0,12.1,25.952c2.525,0,3.782-.732,3.782-2.209,0-.735-.511-1.329-1.546-1.794L9.667,19.962a9.418,9.418,0,0,1-3.838-2.839,6.34,6.34,0,0,1-1.246-3.9,5.9,5.9,0,0,1,2.595-5,11.449,11.449,0,0,1,6.887-1.886,25.834,25.834,0,0,1,3.2.234c1.187.162,2.337.359,3.442.6Z" transform="translate(-4.583 -6.343)" fill-rule="evenodd"/><path d="M23.306,6.717h6.841V29.746H23.306Z" transform="translate(-2.371 -6.298)" fill-rule="evenodd"/><path d="M50.9,6.717v4.256H40.74V16.08h8.816v3.838H40.74v5.361H51.112v4.467H34.156V6.717Z" transform="translate(-1.089 -6.298)" fill-rule="evenodd"/><path d="M80.65,6.717V29.746H74.263V14.557l-6.626,15.4H63.694l-6.373-15.4V29.746H52.7V6.717h8.351l5.7,14.1,5.964-14.1Z" transform="translate(1.102 -6.298)" fill-rule="evenodd"/><path d="M99.168,6.717v4.256H89.06V16.08h8.816v3.838H89.06v5.361H99.376v4.467H82.42V6.717Z" transform="translate(4.613 -6.298)" fill-rule="evenodd"/><path d="M120.981,6.717V29.746h-7.256l-8.143-14.77v14.77h-4.616V6.717h7.468l7.932,14.516V6.717Z" transform="translate(6.804 -6.298)" fill-rule="evenodd"/></g></g><g transform="translate(6933.105 4938.303)" clip-path="url(#g)"><g transform="translate(0 42.175)"><g transform="translate(0 0)"><path d="M106.447-58.442c-3.205.861.74-6.413.74-6.413L112.614-76.2l-11.589.617c-14.3.124-19.6,7.889-19.6,7.889-5.553,6.659-9.129,7.274-9.129,7.274-3.327.494-1.106-2.71-1.106-2.71l6.284-11.344c1.111-1.849-.37-1.478-.37-1.478l-6.41,1.232c-1.6.246-.614-.615-.614-.615l6.41-8.014c1.6-2.1-1.111-.987-1.111-.987L63.542-80.881l-2.957,5.055c-2.962,3.7.741,2.466.741,2.466C46.707-57.145,46.449-61.554,46.449-61.554c-2.923-1.062,6.113-14.356,6.113-14.356L42.216-74.225c-5.582,11.962-12.08,10.357-12.08,10.357C25.2-64.485,32.971-75.58,32.971-75.58l-9.129,1.232C18-68.5,6.462-62.88,6.462-62.88L14.28-76.173,2.887-73.731l-6.04,9c-2.962,4.441-4.813,6.9-4.813,6.9-1.106.864-5.914,5.055-5.914,5.055-5.056,4.194-17.755,20.1-17.755,20.1-2.591,3.453,5.056.494,5.056.494l9.124-2.466A13.822,13.822,0,0,0-11.537-38.1L1.9-54.868c2.591-.741,16.893-9.123,16.893-9.123-3.946,11.959,4.564,11.218,4.564,11.218,6.162,0,13.435-4.438,13.435-4.438.74,5.672,5.426,4.314,5.426,4.314,9.124-.367,23.547-19.6,23.547-19.6l1.724-.244L62.68-64.855c-7.521,12.7.862,12.206.862,12.206,6.907-.123,15.782-6.287,15.782-6.287.492,7.027,6.167,6.163,6.167,6.163,5.548,0,12.08-4.808,12.08-4.808.37,4.561,4.93,4.684,4.93,4.684,4.808,0,7.77-6.533,7.77-6.533l-.741-.371A6.49,6.49,0,0,1,106.447-58.442Zm-8.013-8.879c-1.724,3.33-6.289,5.549-6.289,5.549-8.257,1.6-2.713-5.055-2.713-5.055a16.343,16.343,0,0,1,5.3-3.327c7.024-1.975,3.7,2.834,3.7,2.834" transform="translate(32.171 96.273)"/><path d="M8.686-93.237l8.632-1.728s2.095-.737.614,1.728c0,0-3.205,7.765-9.245,8.752,0,0-5.8,1.6-4.316-2.712,0,0,1.973-5.179,4.316-6.04" transform="translate(36.358 95.069)"/><path d="M97.048-58.7A2.751,2.751,0,0,0,99.8-55.951a2.75,2.75,0,0,0,2.747-2.747,2.752,2.752,0,0,0-2.747-2.75A2.753,2.753,0,0,0,97.048-58.7Zm.531,0A2.223,2.223,0,0,1,99.8-60.917a2.222,2.222,0,0,1,2.216,2.219A2.223,2.223,0,0,1,99.8-56.482,2.224,2.224,0,0,1,97.579-58.7" transform="translate(47.074 98.947)"/><path d="M98.45-60.4h1.325a1.223,1.223,0,0,1,.536.1.761.761,0,0,1,.4.746.938.938,0,0,1-.107.465.824.824,0,0,1-.307.29.62.62,0,0,1,.258.2.777.777,0,0,1,.1.4l.015.428a1.488,1.488,0,0,0,.029.27.275.275,0,0,0,.127.195v.069h-.492a.482.482,0,0,1-.029-.106,2.088,2.088,0,0,1-.015-.25l-.029-.531a.449.449,0,0,0-.2-.416.74.74,0,0,0-.341-.057h-.872v1.361H98.45Zm1.276,1.447a.67.67,0,0,0,.424-.121.506.506,0,0,0,.156-.431.467.467,0,0,0-.219-.459.631.631,0,0,0-.312-.063h-.93v1.074h.882" transform="translate(47.236 99.067)"/></g></g></g></g></svg>